<svg width="32" height="32" viewBox="0 0 32 32" fill="none" xmlns="http://www.w3.org/2000/svg">
<path d="M8.62307 1.74536L12.3752 15.7482V0.35318C12.6727 0.283753 12.9733 0.222611 13.2769 0.170008V15.7497L17.4971 0C17.8012 0.0275324 18.1029 0.0635572 18.4018 0.107836L14.1478 15.9845L22.6038 1.33805C22.8793 1.46198 23.1507 1.59347 23.4176 1.73224L14.93 16.4332L27.0471 4.31608C27.2656 4.52267 27.4783 4.73534 27.6848 4.95382L15.5659 17.0728L30.2687 8.58411C30.4073 8.85114 30.5388 9.12246 30.6627 9.39801L16.0199 17.852L31.8922 13.599C31.9365 13.8979 31.9724 14.1997 32 14.5038L16.2505 18.7238H31.8298C31.7771 19.0275 31.716 19.3282 31.6465 19.6258H16.2481L30.2537 23.3785C30.1098 23.6539 29.9583 23.9247 29.7992 24.1903L16.0186 20.4979L27.5286 27.1432C27.3106 27.3673 27.0863 27.585 26.8558 27.7961L15.5687 21.2796L24.1094 29.8202C23.8392 29.978 23.564 30.1281 23.2842 30.2704L14.9301 21.9163L20.4037 31.397C20.1041 31.4817 19.8008 31.558 19.4943 31.6254L14.1483 22.3658L16.7258 31.9853C16.4961 31.9951 16.2651 32 16.0329 32C15.9537 32 15.8746 31.9994 15.7956 31.9984L13.2769 22.5985V31.764C12.9733 31.7114 12.6727 31.6503 12.3752 31.5809V22.6001L10.1544 30.888C9.87111 30.7763 9.59183 30.6568 9.31671 30.5297L11.5037 22.3678L7.39828 29.4785C7.14412 29.3158 6.89485 29.1461 6.65075 28.9697L10.7239 21.9148L5.01975 27.619C4.80127 27.4124 4.58861 27.1997 4.38202 26.9812L10.0843 21.279L3.03152 25.3509C2.85506 25.1068 2.68528 24.8575 2.52249 24.6035L9.63654 20.496L1.47066 22.6841C1.34356 22.409 1.22403 22.1297 1.11232 21.8465L9.40024 19.6258H0.419341C0.349896 19.3282 0.288736 19.0275 0.236117 18.7238H9.3978L0.00174733 16.2062C0.000583791 16.1266 0 16.0469 0 15.9671C0 15.7354 0.00490789 15.5051 0.0146254 15.2759L9.63528 17.8538L0.374311 12.507C0.441745 12.2005 0.517951 11.8971 0.602654 11.5975L10.0872 17.0734L1.72962 8.71572C1.8718 8.4359 2.02197 8.16068 2.17981 7.89053L10.724 16.4347L4.20483 5.14321C4.41592 4.91266 4.63367 4.6883 4.85776 4.47043L11.5042 15.9825L7.81116 2.19977C8.07691 2.04073 8.34763 1.88917 8.62307 1.74536Z" fill="white"/>
</svg>
