<svg width="278" height="149" viewBox="0 0 278 149" fill="none" xmlns="http://www.w3.org/2000/svg">
<path d="M196.249 71.4058C196.249 78.4375 194.919 84.4792 192.26 89.5308C189.653 94.5308 185.899 98.3591 180.998 101.016C176.149 103.672 170.414 105 163.792 105C158.995 105 154.824 104.375 151.279 103.125C147.733 101.927 144.918 100.625 142.832 99.2183C140.747 97.7599 139.47 96.6667 139 95.9375L147.76 75.7034C148.386 76.5883 149.272 77.5516 150.419 78.5933C151.566 79.6349 152.974 80.5466 154.643 81.3284C156.311 82.0575 158.188 82.4216 160.273 82.4216C162.672 82.4216 164.809 81.9266 166.686 80.9375C168.563 79.9474 170.049 78.3076 171.144 76.0159C172.291 73.7242 172.864 70.6766 172.864 66.875V0H196.249V71.4058ZM205.111 0H240.539C246.43 0 251.878 0.807242 256.883 2.42183C261.941 4.03641 266.008 6.69266 269.084 10.3906C272.212 14.0364 273.776 18.9843 273.776 25.2343C273.776 29.3489 272.995 33.0208 271.431 36.25C269.918 39.4792 267.885 42.1354 265.33 44.2187C262.827 46.25 260.09 47.6042 257.119 48.2813C259.726 48.5938 262.254 49.3489 264.704 50.5468C267.207 51.6927 269.449 53.3072 271.431 55.3906C273.463 57.4218 275.054 59.9739 276.201 63.0468C277.4 66.0677 278 69.6617 278 73.8284C278 79.6091 276.696 84.7133 274.089 89.1409C271.535 93.5159 267.781 96.9534 262.827 99.4534C257.926 101.901 251.905 103.125 244.762 103.125H205.111V0ZM228.494 84.4534H239.131C242.467 84.4534 245.179 83.9583 247.264 82.9683C249.402 81.9266 250.966 80.4683 251.957 78.5933C252.948 76.6667 253.442 74.375 253.442 71.7183C253.442 67.5516 252.139 64.5052 249.532 62.5781C246.977 60.5989 243.38 59.6093 238.739 59.6093H228.494V84.4534ZM228.494 41.3281H237.958C240.721 41.3281 243.015 40.8333 244.84 39.8438C246.717 38.8542 248.124 37.4739 249.063 35.7031C250.054 33.8802 250.549 31.7968 250.549 29.4531C250.549 25.2343 249.35 22.3958 246.951 20.9375C244.553 19.4271 241.269 18.6718 237.098 18.6718H228.494V41.3281Z" fill="#333333"/>
<path d="M7 105H0V45L38 28H103V1H154V8H108V50H7V105Z" fill="#FFDA10"/>
<path d="M133 31V22H124V31H133Z" fill="#FFDA10"/>
<path d="M134 31V22H143V31H134Z" fill="#FFDA10"/>
<path d="M134 41V32H143V41H134Z" fill="#FFDA10"/>
<path d="M133 41V32H124V41H133Z" fill="#FFDA10"/>
<path d="M278 113H0V149H278V113Z" fill="#FFDA10"/>
<path d="M67.879 126.912V130.521H72.433V132.384H67.879V136.065H73.657V138H65.449V124.986H73.657V126.912H67.879ZM89.3925 126.975H85.4685V138H83.0475V126.975H79.1235V124.986H89.3925V126.975ZM101.206 133.086L99.6219 128.757C99.5439 128.565 99.4629 128.337 99.3789 128.073C99.2949 127.809 99.2109 127.524 99.1269 127.218C99.0489 127.524 98.9679 127.812 98.8839 128.082C98.7999 128.346 98.7189 128.577 98.6409 128.775L97.0659 133.086H101.206ZM105.481 138H103.609C103.399 138 103.228 137.949 103.096 137.847C102.964 137.739 102.865 137.607 102.799 137.451L101.827 134.796H96.4359L95.4639 137.451C95.4159 137.589 95.3229 137.715 95.1849 137.829C95.0469 137.943 94.8759 138 94.6719 138H92.7819L97.9029 124.986H100.369L105.481 138ZM122.299 124.986V138H121.057C120.865 138 120.703 137.97 120.571 137.91C120.445 137.844 120.322 137.736 120.202 137.586L113.407 128.91C113.443 129.306 113.461 129.672 113.461 130.008V138H111.328V124.986H112.597C112.699 124.986 112.786 124.992 112.858 125.004C112.936 125.01 113.002 125.028 113.056 125.058C113.116 125.082 113.173 125.121 113.227 125.175C113.281 125.223 113.341 125.289 113.407 125.373L120.229 134.085C120.211 133.875 120.196 133.668 120.184 133.464C120.172 133.26 120.166 133.071 120.166 132.897V124.986H122.299ZM138.634 134.931C138.766 134.931 138.883 134.982 138.985 135.084L139.939 136.119C139.411 136.773 138.76 137.274 137.986 137.622C137.218 137.97 136.294 138.144 135.214 138.144C134.248 138.144 133.378 137.979 132.604 137.649C131.836 137.319 131.179 136.86 130.633 136.272C130.087 135.684 129.667 134.982 129.373 134.166C129.085 133.35 128.941 132.459 128.941 131.493C128.941 130.515 129.097 129.621 129.409 128.811C129.721 127.995 130.159 127.293 130.723 126.705C131.293 126.117 131.971 125.661 132.757 125.337C133.543 125.007 134.413 124.842 135.367 124.842C136.315 124.842 137.155 124.998 137.887 125.31C138.625 125.622 139.252 126.03 139.768 126.534L138.958 127.659C138.91 127.731 138.847 127.794 138.769 127.848C138.697 127.902 138.595 127.929 138.463 127.929C138.373 127.929 138.28 127.905 138.184 127.857C138.088 127.803 137.983 127.74 137.869 127.668C137.755 127.59 137.623 127.506 137.473 127.416C137.323 127.326 137.149 127.245 136.951 127.173C136.753 127.095 136.522 127.032 136.258 126.984C136 126.93 135.7 126.903 135.358 126.903C134.776 126.903 134.242 127.008 133.756 127.218C133.276 127.422 132.862 127.722 132.514 128.118C132.166 128.508 131.896 128.988 131.704 129.558C131.512 130.122 131.416 130.767 131.416 131.493C131.416 132.225 131.518 132.876 131.722 133.446C131.932 134.016 132.214 134.496 132.568 134.886C132.922 135.276 133.339 135.576 133.819 135.786C134.299 135.99 134.815 136.092 135.367 136.092C135.697 136.092 135.994 136.074 136.258 136.038C136.528 136.002 136.774 135.945 136.996 135.867C137.224 135.789 137.437 135.69 137.635 135.57C137.839 135.444 138.04 135.291 138.238 135.111C138.298 135.057 138.361 135.015 138.427 134.985C138.493 134.949 138.562 134.931 138.634 134.931ZM157.068 124.986V138H154.638V132.312H148.527V138H146.097V124.986H148.527V130.584H154.638V124.986H157.068ZM166.897 126.912V130.521H171.451V132.384H166.897V136.065H172.675V138H164.467V124.986H172.675V126.912H166.897ZM181.75 138H179.32V124.986H181.75V138ZM198.254 126.975H194.33V138H191.909V126.975H187.985V124.986H198.254V126.975ZM206.887 126.912V130.521H211.441V132.384H206.887V136.065H212.665V138H204.457V124.986H212.665V126.912H206.887Z" fill="#333333"/>
</svg>
