<svg width="114" height="26" viewBox="0 0 114 26" fill="none" xmlns="http://www.w3.org/2000/svg">
<path d="M19.8452 10.4799C22.0866 10.4799 22.5909 11.4536 22.5909 12.6679C22.5909 13.955 21.9809 14.8772 19.8545 14.8772C17.7416 14.8772 17.1309 14.0086 17.1309 12.6679C17.1309 11.3486 17.7966 10.4799 19.8452 10.4799Z" fill="#181818"/>
<path d="M43.2695 10.4799C45.5109 10.4799 46.0152 11.4536 46.0152 12.6679C46.0152 13.955 45.4045 14.8772 43.2787 14.8772C41.1666 14.8772 40.5552 14.0086 40.5552 12.6679C40.5552 11.3486 41.2209 10.4799 43.2695 10.4799Z" fill="#181818"/>
<path fill-rule="evenodd" clip-rule="evenodd" d="M0 25.3235V0H113.271V25.3235H0ZM53.9843 23.8951H111.842V1.42857H53.9843V23.8951ZM19.8559 17.0328C23.8352 17.0328 25.508 15.3164 25.508 12.6357C25.508 9.91145 23.6237 8.29215 19.8559 8.29215C16.1459 8.29215 14.193 10.0507 14.193 12.6357C14.193 15.5528 16.2416 17.0328 19.8559 17.0328ZM6.02088 8.48505V16.9042H14.0523V14.6622H8.9266V8.48505H6.02088ZM34.4966 16.9042L34.4216 16.0885C33.4495 16.7822 32.2664 17.1161 31.0752 17.0328C29.2845 17.0328 27.793 16.4965 26.9566 15.4136C26.4049 14.6231 26.1263 13.6741 26.163 12.7108C26.1317 11.7677 26.4199 10.8417 26.9809 10.0829C27.8273 9.03215 29.3616 8.33505 31.6459 8.33505C34.2737 8.33505 35.818 9.13925 36.4823 10.4908C36.6249 10.8091 36.7087 11.1505 36.7295 11.4986H33.9495C33.8794 11.2871 33.749 11.1006 33.5745 10.9622C33.0207 10.5951 32.3594 10.4253 31.6973 10.4801C31.309 10.433 30.915 10.4687 30.5415 10.5852C30.1681 10.7017 29.8236 10.8963 29.5309 11.1558C29.1985 11.6108 29.0424 12.1709 29.0916 12.7322C29.053 13.2677 29.1965 13.8006 29.4987 14.2443C29.7941 14.5196 30.1452 14.728 30.5282 14.8557C30.9113 14.9833 31.3172 15.0273 31.7187 14.9843C32.5161 15.0492 33.3077 14.8033 33.928 14.2979C34.0612 14.1313 34.1531 13.9354 34.1959 13.7264H31.2045V11.9172H36.8023V16.9042H34.4966ZM43.2802 17.0328C47.2587 17.0328 48.9323 15.3164 48.9323 12.6357C48.9323 9.91145 47.0451 8.29215 43.2802 8.29215C39.5702 8.29215 37.6173 10.0507 37.6173 12.6357C37.6173 15.5528 39.6659 17.0328 43.2802 17.0328Z" fill="#181818"/>
<path d="M58.8788 16.8721V8.45285H60.9502V16.8721H58.8788Z" fill="#181818"/>
<path d="M71.5873 13.3542C71.0623 14.0407 70.1587 14.3542 68.8852 14.3621C68.6166 14.3621 65.0559 14.3514 65.0559 14.3514V16.8721H63.0287V8.45283H68.8859C69.3553 8.40323 69.8302 8.45293 70.2787 8.59893C70.728 8.74493 71.1409 8.98373 71.4916 9.29993C71.9545 9.90293 72.1795 10.6548 72.1245 11.4128C72.1716 12.1022 71.9823 12.7872 71.5873 13.3542ZM69.9252 10.6092C69.7109 10.2878 69.2487 10.1092 68.4666 10.1092H65.0452V12.6721H68.4445C69.2809 12.6721 69.7216 12.5007 69.9252 12.1678C70.0459 11.9333 70.098 11.6692 70.0752 11.4064C70.093 11.1322 70.0416 10.858 69.9252 10.6092Z" fill="#181818"/>
<path d="M78.098 17.0007C74.2795 17.0007 73.1109 15.5721 73.1109 14.1585H75.2773C75.2773 14.8557 76.2316 15.3814 78.1945 15.3814C80.1459 15.3814 80.6609 15.0378 80.6609 14.4799C80.6609 13.8578 80.2752 13.6649 78.4623 13.4614C78.1052 13.4292 77.133 13.3114 76.768 13.2578C74.1966 12.9678 73.2066 12.2064 73.2066 10.8442C73.2066 9.40715 74.6552 8.32425 77.7973 8.32425C81.208 8.32425 82.5166 9.66495 82.5166 11.0592H80.3738C80.3738 10.3514 79.5695 9.94355 77.6709 9.94355C75.7188 9.94355 75.3009 10.2114 75.3009 10.7371C75.3009 11.2842 75.7295 11.4557 77.8009 11.7021C78.273 11.7671 79.3238 11.8849 79.613 11.9164C81.8016 12.1414 82.788 12.9349 82.788 14.3399C82.7845 16.0135 81.283 17.0007 78.098 17.0007Z" fill="#181818"/>
<path d="M88.888 16.99C86.0895 16.99 84.2659 15.8849 84.2659 13.5613V8.45285H86.3138V13.59C86.3138 14.6522 87.183 15.3593 88.9738 15.3593C90.593 15.3593 91.5587 14.695 91.5587 13.59V8.45285H93.5859V13.7522C93.5859 15.8643 91.8909 16.99 88.888 16.99Z" fill="#181818"/>
<path d="M104.686 16.8721V11.2522L102.058 16.8721H100.064L97.5109 11.2522V16.8721H95.5823V8.45285H98.1952L101.091 14.8664L104.051 8.45285H106.623V16.8721H104.686Z" fill="#181818"/>
</svg>
